<svg width="221.67" height="221.67" xmlns:xlink="http://www.w3.org/1999/xlink" xmlns="http://www.w3.org/2000/svg"><g><circle cx="110.835" cy="110.835" r="110.835" fill="#46a1e7"></circle></g><g transform="translate(30,67.084)" fill-rule="evenodd"><path d="M 16.602 86.72 L 0 86.72 L 0 0.782 L 16.602 0.782 L 16.602 86.72 Z" id="0" vector-effect="non-scaling-stroke" fill="#f5f5f4"></path>
<path d="M 22.754 65.431 L 22.754 25.782 A 50.557 50.557 0 0 1 23.235 18.563 Q 24.298 11.213 27.71 6.641 A 15.522 15.522 0 0 1 35.782 1.099 Q 39.3 0.001 43.848 0.001 A 28.326 28.326 0 0 1 49.785 0.598 A 22.577 22.577 0 0 1 54.712 2.247 Q 59.473 4.493 62.207 8.961 A 17.614 17.614 0 0 1 64.3 14.185 Q 64.821 16.414 64.919 19.002 A 32.166 32.166 0 0 1 64.941 20.216 L 64.941 35.059 L 47.852 35.059 L 47.852 22.364 Q 47.852 18.507 46.875 17.164 A 3.136 3.136 0 0 0 44.971 15.939 A 5.005 5.005 0 0 0 43.848 15.821 A 5.086 5.086 0 0 0 42.656 15.951 A 2.877 2.877 0 0 0 40.625 17.555 A 7.411 7.411 0 0 0 40.103 19.084 Q 39.795 20.413 39.795 22.169 L 39.795 65.186 Q 39.795 68.011 40.454 69.517 A 3.836 3.836 0 0 0 40.845 70.216 A 3.373 3.373 0 0 0 43.313 71.651 A 4.737 4.737 0 0 0 43.848 71.681 Q 46.045 71.681 46.948 69.874 A 7.704 7.704 0 0 0 47.55 68.158 Q 47.852 66.852 47.852 65.186 L 47.852 49.708 L 65.137 49.708 L 65.137 65.968 Q 65.137 72.907 62.993 77.51 A 14.878 14.878 0 0 1 59.424 82.398 A 18.845 18.845 0 0 1 52.072 86.38 Q 48.264 87.501 43.457 87.501 A 24.315 24.315 0 0 1 36.726 86.614 A 18.563 18.563 0 0 1 28.442 81.69 A 19.035 19.035 0 0 1 23.693 73.155 Q 22.754 69.676 22.754 65.431 Z" id="1" vector-effect="non-scaling-stroke" fill="#f5f5f4"></path>
<path d="M 70.166 63.282 L 70.166 22.462 A 36.072 36.072 0 0 1 70.693 16.085 Q 71.852 9.641 75.562 5.714 Q 80.457 0.53 89.472 0.05 A 35.428 35.428 0 0 1 91.357 0.001 A 30.215 30.215 0 0 1 97.507 0.587 Q 101.232 1.362 104.06 3.161 A 16.199 16.199 0 0 1 107.153 5.714 Q 112.549 11.427 112.549 22.462 L 112.549 63.282 A 40.833 40.833 0 0 1 112.017 70.096 Q 110.847 76.995 107.104 81.275 Q 101.66 87.501 91.357 87.501 A 27.303 27.303 0 0 1 85.119 86.831 Q 80.137 85.662 76.745 82.455 A 17.235 17.235 0 0 1 75.61 81.275 A 20.122 20.122 0 0 1 71.658 74.083 Q 70.166 69.442 70.166 63.282 Z M 95.41 64.112 L 95.41 22.169 A 15.819 15.819 0 0 0 95.276 20.012 Q 94.944 17.614 93.789 16.588 A 3.172 3.172 0 0 0 91.602 15.821 A 3.613 3.613 0 0 0 88.157 17.819 Q 87.305 19.423 87.305 22.315 L 87.305 64.21 A 26.347 26.347 0 0 0 87.366 66.07 Q 87.549 68.647 88.281 69.947 A 3.221 3.221 0 0 0 90.582 71.598 A 4.872 4.872 0 0 0 91.504 71.681 Q 94.985 71.681 95.364 65.668 A 24.819 24.819 0 0 0 95.41 64.112 Z" id="2" vector-effect="non-scaling-stroke" fill="#f5f5f4"></path>
<path d="M 136.279 86.72 L 119.482 86.72 L 119.482 0.782 L 137.158 0.782 L 145.068 41.944 L 145.068 0.782 L 161.67 0.782 L 161.67 86.72 L 144.873 86.72 L 136.279 43.751 L 136.279 86.72 Z" id="3" vector-effect="non-scaling-stroke" fill="#f5f5f4"></path>
</g><g opacity="0.9" class="chr" transform="translate(110.835,110.835)"><path class="band-path" d="M64.55671736529688,-88.85469862656207A1,1,0,0,0,64.32809551246079,-90.25681887115076A110.835,110.835,0,0,0,53.75042609496787,-96.92929856142257A1,1,0,0,0,52.3865511323137,-96.53173822873738L48.0537386055458,-88.54774394799608A1,1,0,0,0,48.44697792452546,-87.19662884670797A99.7515,99.7515,0,0,1,57.828585301851525,-81.27863479559977A1,1,0,0,0,59.21732876953114,-81.50566069698016Z" style="fill: rgb(242, 242, 242);"></path><path class="band-path" d="M52.38655113231361,-96.53173822873747A1,1,0,0,0,51.976589787947134,-97.89193704803002A110.835,110.835,0,0,0,48.77362964646964,-99.52653051377315A1,1,0,0,0,47.43163390713071,-99.06042262124632L43.50863510083749,-90.86728467337501A1,1,0,0,0,43.96978144813759,-89.53781364123772A99.7515,99.7515,0,0,1,46.7065931193021,-88.1411136271715A1,1,0,0,0,48.0537386055457,-88.54774394799614Z" style="fill: rgb(151, 151, 151);"></path><path class="band-path" d="M47.43163390713066,-99.06042262124632A1,1,0,0,0,46.953327044873376,-100.3981190282824A110.835,110.835,0,0,0,38.14784918420433,-104.06314826882377A1,1,0,0,0,36.86166698623045,-103.4598701526164L33.81289418055191,-94.90286054374124A1,1,0,0,0,34.40993387797434,-93.62861850290986A99.7515,99.7515,0,0,1,42.18380662273357,-90.39296549547325A1,1,0,0,0,43.50863510083744,-90.86728467337501Z" style="fill: rgb(242, 242, 242);"></path><path class="band-path" d="M36.861666986230496,-103.45987015261639A1,1,0,0,0,36.24670374371217,-104.7405064562682A110.835,110.835,0,0,0,13.153271373404502,-110.05175453929654A1,1,0,0,0,12.040624471451006,-109.16845051267099L11.044762605907595,-100.13929284366424A1,1,0,0,0,11.919245770905068,-99.03682816257172A99.7515,99.7515,0,0,1,32.544640770568364,-94.29320287997783A1,1,0,0,0,33.81289418055195,-94.90286054374123Z" style="fill: rgb(151, 151, 151);"></path><path class="band-path" d="M12.040624471450995,-109.16845051267099A1,1,0,0,0,11.147226888411337,-110.27300919852635A110.835,110.835,0,0,0,7.23459642468939,-110.5986339860121A1,1,0,0,0,6.170902517142784,-109.65695229726167L5.660516489625743,-100.5873913834168A1,1,0,0,0,6.5928441427801765,-99.53339217749492A99.7515,99.7515,0,0,1,9.951031834553728,-99.25391033948081A1,1,0,0,0,11.044762605907582,-100.13929284366424Z" style="fill: rgb(242, 242, 242);"></path><path class="band-path" d="M6.170902517142779,-109.65695229726167A1,1,0,0,0,5.2195753873472155,-110.7120285144112A110.835,110.835,0,0,0,-1.6770913154979135,-110.82231088422348A1,1,0,0,0,-2.661666197813572,-109.79819105090674L-2.4415238064041143,-100.71694849305533A1,1,0,0,0,-1.4275068700442306,-99.74128521523058A99.7515,99.7515,0,0,1,4.615822936417694,-99.6446482801241A1,1,0,0,0,5.6605164896257385,-100.58739138341679Z" style="fill: rgb(151, 151, 151);"></path><path class="band-path" d="M-2.6616661978135747,-109.79819105090674A1,1,0,0,0,-3.6947077109447957,-110.77340095858159A110.835,110.835,0,0,0,-11.563738153351906,-110.23011015562268A1,1,0,0,0,-12.452956544944211,-109.12218426282409L-11.422991316331386,-100.09685320546804A1,1,0,0,0,-10.325923540236053,-99.21560892970015A99.7515,99.7515,0,0,1,-3.4070744905215227,-99.69329764666247A1,1,0,0,0,-2.4415238064041165,-100.71694849305531Z" style="fill: rgb(242, 242, 242);"></path><path class="band-path" d="M-12.452956544944225,-109.12218426282408A1,1,0,0,0,-13.568932464554827,-110.00127861426135A110.835,110.835,0,0,0,-25.875066175883045,-107.77234420478044A1,1,0,0,0,-26.611812058475643,-106.55767773353722L-24.4107892739115,-97.74445313814327A1,1,0,0,0,-23.20793020243722,-97.01419343564528A99.7515,99.7515,0,0,1,-12.293303335612567,-98.99109275762449A1,1,0,0,0,-11.4229913163314,-100.09685320546804Z" style="fill: rgb(0, 0, 0);"></path><path class="band-path" d="M-26.611812058475675,-106.55767773353718A1,1,0,0,0,-27.83313593639718,-107.28333406893185A110.835,110.835,0,0,0,-32.8792848864227,-105.84587781466718A1,1,0,0,0,-33.53487972805618,-104.58555859498387L-30.76126047218286,-95.93544499512429A1,1,0,0,0,-29.513148178915085,-95.28554894011683A99.7515,99.7515,0,0,1,-25.12907413509791,-96.5344051898739A1,1,0,0,0,-24.410789273911533,-97.74445313814324Z" style="fill: rgb(242, 242, 242);"></path><path class="band-path" d="M-33.534879728056175,-104.5855585949839A1,1,0,0,0,-34.80111561722565,-105.2296516044622A110.835,110.835,0,0,0,-52.054702522843066,-97.85042243270242A1,1,0,0,0,-52.46357813786324,-96.48989684921585L-48.124394823797225,-88.50936320578336A1,1,0,0,0,-46.77692522775108,-88.10380819514774A99.7515,99.7515,0,0,1,-31.398736487634764,-94.680943696343A1,1,0,0,0,-30.761260472182858,-95.9354449951243Z" style="fill: rgb(0, 0, 0);"></path><path class="band-path" d="M-52.46357813786326,-96.48989684921584A1,1,0,0,0,-53.82776996607348,-96.88636852250927A110.835,110.835,0,0,0,-65.20388350277322,-89.62617252319087A1,1,0,0,0,-65.41884196526223,-88.22189263966197L-60.00814834586686,-80.9251931375541A1,1,0,0,0,-58.61726014500298,-80.7117003001612A99.7515,99.7515,0,0,1,-48.51655566863284,-87.15793468355275A1,1,0,0,0,-48.12439482379725,-88.50936320578333Z" style="fill: rgb(242, 242, 242);"></path><path class="band-path" d="M-65.41884196526232,-88.22189263966195A1,1,0,0,0,-66.82502074850997,-88.42405683387986A110.835,110.835,0,0,0,-78.02011589008522,-78.72266980671876A1,1,0,0,0,-78.02001620835445,-77.30203293476899L-71.56709849837989,-70.90849853701029A1,1,0,0,0,-70.15992084447612,-70.90801971107955A99.7515,99.7515,0,0,1,-60.207825530599685,-79.53225444514237A1,1,0,0,0,-60.00814834586693,-80.92519313755407Z" style="fill: rgb(80, 80, 80);"></path><path class="band-path" d="M-78.0200162083544,-77.302032934769A1,1,0,0,0,-79.44059329101299,-77.28899897509255A110.835,110.835,0,0,0,-83.66257805752494,-72.69780091425424A1,1,0,0,0,-83.55674955806055,-71.28111130090178L-76.64589699464645,-65.38555823831473A1,1,0,0,0,-75.24258621830965,-65.48980814928562A99.7515,99.7515,0,0,1,-71.55361048480712,-69.50138544546071A1,1,0,0,0,-71.56709849837986,-70.9084985370103Z" style="fill: rgb(242, 242, 242);"></path><path class="band-path" d="M-83.55674955806057,-71.28111130090174A1,1,0,0,0,-84.97241693073276,-71.16238884375453A110.835,110.835,0,0,0,-92.99128081729751,-60.30770197046573A1,1,0,0,0,-92.68873447639908,-58.91965483744443L-85.02258923207346,-54.046499169919464A1,1,0,0,0,-83.64756959818702,-54.34561484210533A99.7515,99.7515,0,0,1,-76.52772378325808,-63.98335130956609A1,1,0,0,0,-76.64589699464645,-65.38555823831469Z" style="fill: rgb(216, 216, 216);"></path><path class="band-path" d="M-92.68873447639905,-58.91965483744448A1,1,0,0,0,-94.07396952533807,-58.604483469660956A110.835,110.835,0,0,0,-98.46260343620297,-50.88725724152394A1,1,0,0,0,-98.0252513849036,-49.5356166402161L-89.91773088661105,-45.438600599633276A1,1,0,0,0,-88.57871805966549,-45.871259620336254A99.7515,99.7515,0,0,1,-84.70984065939078,-52.67451611273353A1,1,0,0,0,-85.02258923207343,-54.046499169919514Z" style="fill: rgb(242, 242, 242);"></path><path class="band-path" d="M-98.02525138490357,-49.53561664021614A1,1,0,0,0,-99.37285406360655,-49.08597661504915A110.835,110.835,0,0,0,-102.48699524423745,-42.19968045859646A1,1,0,0,0,-101.93462312839254,-40.890828221895696L-93.50376439736921,-37.50880957550193A1,1,0,0,0,-92.2070877920236,-38.05541634464204A99.7515,99.7515,0,0,1,-89.47180292584402,-44.10394804832021A1,1,0,0,0,-89.91773088661103,-45.43860059963332Z" style="fill: grey;"></path><path class="band-path" d="M-101.93462312839256,-40.89082822189565A1,1,0,0,0,-103.2383920081937,-40.326562468954975A110.835,110.835,0,0,0,-105.6472123704743,-33.51214322223959A1,1,0,0,0,-104.98768848224877,-32.25387561447899L-96.30431532673475,-29.586206274188594A1,1,0,0,0,-95.05770054359174,-30.23897021419271A99.7515,99.7515,0,0,1,-92.94431450539483,-36.21762213857019A1,1,0,0,0,-93.50376439736924,-37.5088095755019Z" style="fill: grey;"></path><path class="band-path" d="M-104.98768848224879,-32.253875614479014A1,1,0,0,0,-106.23989925933483,-31.582923081411913A110.835,110.835,0,0,0,-107.124265907716,-28.4392137502596A1,1,0,0,0,-106.40552588126056,-27.213806917305572L-97.60488553577937,-24.962994047137204A1,1,0,0,0,-96.39079612665142,-25.674426465265423A99.7515,99.7515,0,0,1,-95.63921037713466,-28.346131847011808A1,1,0,0,0,-96.30431532673477,-29.58620627418861Z" style="fill: rgb(242, 242, 242);"></path><path class="band-path" d="M-106.40552588126056,-27.21380691730554A1,1,0,0,0,-107.6243381082992,-26.4839398834557A110.835,110.835,0,0,0,-109.29079851059882,-18.436881133089965A1,1,0,0,0,-108.46209163262428,-17.282994638551934L-99.49135583979964,-15.85354425383688A1,1,0,0,0,-98.34806447082687,-16.67393076308284A99.7515,99.7515,0,0,1,-96.88143782564299,-23.756025700568447A1,1,0,0,0,-97.60488553577936,-24.962994047137165Z" style="fill: rgb(151, 151, 151);"></path><path class="band-path" d="M-108.46209163262428,-17.282994638551937A1,1,0,0,0,-109.60838528512953,-16.44381647266235A110.835,110.835,0,0,0,-110.7745260342385,-3.6608205213880027A1,1,0,0,0,-109.79900015142944,-2.6280773859234117L-100.71769067409575,-2.4107130744175027A1,1,0,0,0,-99.69433525004867,-3.3765768613946436A99.7515,99.7515,0,0,1,-98.65966210503103,-14.71845187413071A1,1,0,0,0,-99.49135583979964,-15.853544253836883Z" style="fill: rgb(242, 242, 242);"></path><path class="band-path" d="M-109.79900015142944,-2.6280773859234055A1,1,0,0,0,-110.82281874263008,-1.6431892581690075A110.835,110.835,0,0,0,-110.81779626012411,1.952756269896411A1,1,0,0,0,-109.79123046839166,2.934780611307728L-100.71056360980776,2.6920493392323235A1,1,0,0,0,-99.73742571439263,1.6756085807877348A99.7515,99.7515,0,0,1,-99.74171724102217,-1.3969946535258946A1,1,0,0,0,-100.71769067409575,-2.410713074417497Z" style="fill: rgb(151, 151, 151);"></path><path class="band-path" d="M-109.79123046839167,2.9347806113077253A1,1,0,0,0,-110.76386767148584,3.970244759908147A110.835,110.835,0,0,0,-110.47880302864111,8.878699587142147A1,1,0,0,0,-109.39283743867655,9.79460780814058L-100.34512106590277,8.984510588747316A1,1,0,0,0,-99.43744875090668,7.909205912150929A99.7515,99.7515,0,0,1,-99.68451412618026,3.655050707906394A1,1,0,0,0,-100.71056360980776,2.6920493392323204Z" style="fill: rgb(242, 242, 242);"></path><path class="band-path" d="M-109.39283743867655,9.794607808140572A1,1,0,0,0,-110.2988204523206,10.88886733442677A110.835,110.835,0,0,0,-104.62084852767498,36.59064468343359A1,1,0,0,0,-103.33819860628363,37.20139693355992L-94.79125226724979,34.12452557701877A1,1,0,0,0,-94.18576488186608,32.85427591452655A99.7515,99.7515,0,0,1,-99.26086033641013,9.881465353158836A1,1,0,0,0,-100.34512106590277,8.984510588747307Z" style="fill: rgb(0, 0, 0);"></path><path class="band-path" d="M-103.33819860628363,37.20139693355992A1,1,0,0,0,-103.93724757151827,38.48955432655619A110.835,110.835,0,0,0,-102.75816505096466,41.535006203908324A1,1,0,0,0,-101.44786579327881,42.0839369711163L-93.05726602631194,38.60323810198059A1,1,0,0,0,-92.51300317991134,37.305575922155526A99.7515,99.7515,0,0,1,-93.51505546396635,34.71737538785582A1,1,0,0,0,-94.7912522672498,34.12452557701877Z" style="fill: rgb(242, 242, 242);"></path><path class="band-path" d="M-101.44786579327882,42.0839369711163A1,1,0,0,0,-101.98484410273056,43.399179696645696A110.835,110.835,0,0,0,-94.25903930688473,58.306352432159194A1,1,0,0,0,-92.8748090300769,58.625907861855254L-85.1932738404378,53.77704756304654A1,1,0,0,0,-84.87618314938466,52.406061541028855A99.7515,99.7515,0,0,1,-91.7542657346687,39.13459430915055A1,1,0,0,0,-93.05726602631194,38.6032381019806Z" style="fill: rgb(0, 0, 0);"></path><path class="band-path" d="M-92.87480903007689,58.62590786185528A1,1,0,0,0,-93.1817483991939,60.01299017937133A110.835,110.835,0,0,0,-91.37321941476135,62.73222456426902A1,1,0,0,0,-89.97533285012473,62.98544834729103L-82.53360895636253,57.77601703897762A1,1,0,0,0,-82.2822159272037,56.39147714290717A99.7515,99.7515,0,0,1,-83.81920809530017,54.08051503570177A1,1,0,0,0,-85.19327384043781,53.777047563046565Z" style="fill: rgb(242, 242, 242);"></path><path class="band-path" d="M-89.9753328501247,62.98544834729108A1,1,0,0,0,-90.21581898727027,64.38558246576704A110.835,110.835,0,0,0,-81.4984610494402,75.1158975954683A1,1,0,0,0,-80.07875379633953,75.16728287909066L-73.45556100969462,68.95031043440652A1,1,0,0,0,-73.40408537016053,67.544074523382A99.7515,99.7515,0,0,1,-81.14664208107597,58.01365555811621A1,1,0,0,0,-82.53360895636249,57.77601703897766Z" style="fill: rgb(80, 80, 80);"></path><path class="band-path" d="M-80.07875379633947,75.1672828790907A1,1,0,0,0,-80.11721113187338,76.58739912969249A110.835,110.835,0,0,0,-71.4850292577634,84.70116774293439A1,1,0,0,0,-70.07001119922178,84.57494165260141L-64.27462639696694,77.57987595878404A1,1,0,0,0,-64.39908132952536,76.17821260808877A99.7515,99.7515,0,0,1,-72.04888345032454,68.9878260696157A1,1,0,0,0,-73.45556100969459,68.95031043440656Z" style="fill: rgb(242, 242, 242);"></path><path class="band-path" d="M-70.0700111992218,84.5749416526014A1,1,0,0,0,-69.93090721541449,85.9887518285333A110.835,110.835,0,0,0,-68.41136867021554,87.20253357367463A1,1,0,0,0,-67.00176751768252,87.02580292365258L-61.46015251647783,79.82803019554771A1,1,0,0,0,-61.63463572563329,78.4317118977935A99.7515,99.7515,0,0,1,-62.87426735584505,77.44151507244494A1,1,0,0,0,-64.27462639696697,77.57987595878403Z" style="fill: rgb(151, 151, 151);"></path><path class="band-path" d="M-67.00176751768258,87.02580292365258A1,1,0,0,0,-66.81221038604785,88.4337365959987A110.835,110.835,0,0,0,-54.9966176115186,96.22769495468755A1,1,0,0,0,-53.62772651657491,95.84776561643702L-49.192258248274,87.92034167748163A1,1,0,0,0,-49.56803157133753,86.56426513517503A99.7515,99.7515,0,0,1,-60.0656348161937,79.63969654875423A1,1,0,0,0,-61.46015251647787,79.8280301955477Z" style="fill: rgb(242, 242, 242);"></path><path class="band-path" d="M-53.627726516574874,95.84776561643703A1,1,0,0,0,-53.23534976617663,97.2131408826648A110.835,110.835,0,0,0,-30.71967601808504,106.4927167948301A1,1,0,0,0,-29.479204431667625,105.80030118613058L-27.04102395442878,97.0497180611361A1,1,0,0,0,-27.726375230407907,95.82071732580916A99.7515,99.7515,0,0,1,-47.83997820822316,87.5311272478924A1,1,0,0,0,-49.19225824827397,87.92034167748164Z" style="fill: rgb(80, 80, 80);"></path><path class="band-path" d="M-29.47920443166759,105.80030118613061A1,1,0,0,0,-28.775523566453213,107.03441721463473A110.835,110.835,0,0,0,-16.534058379452752,109.59480890309014A1,1,0,0,0,-15.394753464170552,108.74616678659258L-14.121476655250838,99.75193556681097A1,1,0,0,0,-14.961615462712883,98.62307952500728A99.7515,99.7515,0,0,1,-25.818886150121447,96.3522022074071A1,1,0,0,0,-27.04102395442875,97.04971806113612Z" style="fill: rgb(242, 242, 242);"></path><path class="band-path" d="M-15.394753464170558,108.74616678659257A1,1,0,0,0,-14.535773644971966,109.87769796251712A110.835,110.835,0,0,0,8.824320310397479,110.48315978491702A1,1,0,0,0,9.740762937965636,109.39764514095519L8.935119146464714,100.34953113038684A1,1,0,0,0,7.860261360826905,99.44132965517652A99.7515,99.7515,0,0,1,-13.001014941325858,98.90063378333538A1,1,0,0,0,-14.121476655250843,99.75193556681094Z" style="fill: rgb(0, 0, 0);"></path><path class="band-path" d="M9.740762937965634,109.39764514095518A1,1,0,0,0,10.834576402479497,110.30416664468679A110.835,110.835,0,0,0,14.734518792610967,109.85122293789084A1,1,0,0,0,15.59145026459752,108.71813971755856L14.301904960378074,99.72622657432855A1,1,0,0,0,13.179905073511923,98.87695310082736A99.7515,99.7515,0,0,1,9.832607480601265,99.26571201770741A1,1,0,0,0,8.935119146464713,100.34953113038682Z" style="fill: rgb(242, 242, 242);"></path><path class="band-path" d="M15.591450264597514,108.71813971755854A1,1,0,0,0,16.73228851064694,109.56471944105216A110.835,110.835,0,0,0,25.126096828856912,107.94941631684215A1,1,0,0,0,25.87125930513122,106.7398949173488L23.731486520367962,97.91159941387738A1,1,0,0,0,22.5337271974952,97.1730049491054A99.7515,99.7515,0,0,1,15.140000290778488,98.59585256716038A1,1,0,0,0,14.301904960378065,99.72622657432852Z" style="fill: rgb(216, 216, 216);"></path><path class="band-path" d="M25.87125930513121,106.73989491734879A1,1,0,0,0,27.08751495398495,107.4740143412241A110.835,110.835,0,0,0,39.022870747295784,103.73819346624389A1,1,0,0,0,39.603515279606476,102.44163607878379L36.32796834249042,93.9688430723557A1,1,0,0,0,35.04393073431739,93.3931725070862A99.7515,99.7515,0,0,1,24.458156350372274,96.70656823706828A1,1,0,0,0,23.731486520367955,97.91159941387737Z" style="fill: rgb(242, 242, 242);"></path><path class="band-path" d="M39.603515279606476,102.44163607878379A1,1,0,0,0,40.90530544454075,103.01045195264811A110.835,110.835,0,0,0,46.035211348058475,100.82240098876632A1,1,0,0,0,46.52570514690447,99.48912496139116L42.67763434018031,91.26052969041906A1,1,0,0,0,41.35718931723754,90.77414083332417A99.7515,99.7515,0,0,1,36.890865950911774,92.67915494674008A1,1,0,0,0,36.327968342490415,93.9688430723557Z" style="fill: rgb(80, 80, 80);"></path><path class="band-path" d="M46.525705146904485,99.48912496139114A1,1,0,0,0,47.86339164656359,99.9674595310277A110.835,110.835,0,0,0,51.373997498481806,98.2095189175977A1,1,0,0,0,51.79231042255972,96.85186526904482L47.508646647436755,88.84139376427518A1,1,0,0,0,46.16402561408013,88.42649202220198A99.7515,99.7515,0,0,1,43.15089327973615,89.93532210100112A1,1,0,0,0,42.67763434018035,91.26052969041906Z" style="fill: rgb(242, 242, 242);"></path><path class="band-path" d="M51.79231042255975,96.8518652690448A1,1,0,0,0,53.1537163574732,97.25780000796482A110.835,110.835,0,0,0,65.38258419860236,89.4958932494261A1,1,0,0,0,65.59474028312303,88.09118725610206L60.169498379509825,80.80529819886912A1,1,0,0,0,58.77818696654511,80.59458101619404A99.7515,99.7515,0,0,1,47.910182036461826,87.49272089427262A1,1,0,0,0,47.508646647436784,88.84139376427517Z" style="fill: rgb(0, 0, 0);"></path><path class="band-path" d="M65.59474028312297,88.0911872561021A1,1,0,0,0,67.00131964406961,88.29054530895827A110.835,110.835,0,0,0,84.75306820176901,71.42348812110963A1,1,0,0,0,84.62581435327375,70.00856211953825L77.62654105521483,64.21825967785986A1,1,0,0,0,76.22496847149517,64.34373266892094A99.7515,99.7515,0,0,1,60.36639584569436,79.41196386471583A1,1,0,0,0,60.169498379509776,80.80529819886917Z" style="fill: rgb(242, 242, 242);"></path></g></svg>